<svg xmlns="http://www.w3.org/2000/svg" viewBox="0 0 40 40" stroke="#000" stroke-width="0.5">
  <path d="m28.03,2.22c5.51,0,10,4.49,10,10v15.55c0,5.51-4.49,10-10,10H11.97c-5.51,0-10-4.49-10-10v-15.55C1.97,6.71,6.46,2.22,11.97,2.22h16.05m0-1H11.97C5.92,1.22.97,6.17.97,12.22v15.55c0,6.05,4.95,11,11,11h16.05c6.05,0,11-4.95,11-11v-15.55c0-6.05-4.95-11-11-11h0Z" />
  <path d="m20,11.89c4.47,0,8.11,3.64,8.11,8.11s-3.64,8.11-8.11,8.11-8.11-3.64-8.11-8.11,3.64-8.11,8.11-8.11m0-1c-5.03,0-9.11,4.08-9.11,9.11s4.08,9.11,9.11,9.11,9.11-4.08,9.11-9.11-4.08-9.11-9.11-9.11h0Z" />
  <circle cx="30.36" cy="9.27" r="1.5"/>
</svg>